<svg width="183" height="36" viewBox="0 0 183 36" fill="none" xmlns="http://www.w3.org/2000/svg">
<path d="M33.7415 31.0092C33.7415 31.565 33.407 31.8489 32.7379 31.8489H28.317C27.7396 31.8246 27.1806 31.6402 26.704 31.3167C26.1593 31.0063 25.6966 30.5727 25.3538 30.0512L21.9605 24.7175C21.3093 23.612 20.4776 22.6209 19.4992 21.7845C18.6574 21.1251 17.6092 20.7778 16.536 20.8029H12.378V30.0867C12.3848 30.3206 12.3415 30.5532 12.2509 30.7693C12.1603 30.9854 12.0244 31.18 11.8523 31.3403C11.5109 31.6706 11.0511 31.8534 10.5738 31.8489H6.9893C6.7481 31.8501 6.50919 31.8025 6.28727 31.7089C6.06536 31.6153 5.86512 31.4778 5.69889 31.3048C5.52648 31.1367 5.39003 30.9359 5.29766 30.7144C5.20529 30.4929 5.15889 30.2553 5.16122 30.0157V6.26804C5.15996 6.02685 5.20681 5.78779 5.29908 5.56455C5.39134 5.34131 5.52721 5.13829 5.69889 4.96712C5.86332 4.79183 6.06321 4.65279 6.28555 4.55905C6.50788 4.46532 6.74768 4.419 6.9893 4.4231H10.5738C10.8136 4.41917 11.0516 4.46563 11.272 4.5594C11.4923 4.65318 11.6901 4.79214 11.8523 4.96712C12.0223 5.13887 12.1563 5.34226 12.2466 5.56554C12.3368 5.78882 12.3815 6.02758 12.378 6.26804V15.3745H16.536C17.6025 15.3942 18.6466 15.0704 19.5111 14.452C20.5329 13.6523 21.3684 12.6438 21.9605 11.4954L24.9476 6.22074C25.1934 5.69438 25.5835 5.24686 26.0736 4.92907C26.5636 4.61128 27.1339 4.43598 27.7196 4.4231H32.1763C32.7976 4.4231 33.1083 4.68329 33.1083 5.21548C33.0858 5.58655 32.9753 5.94716 32.7857 6.26804L28.5918 13.7779C28.0566 14.7769 27.3718 15.69 26.5606 16.4862C25.7293 17.24 24.711 17.7623 23.6094 18C24.6374 18.2614 25.567 18.8118 26.2858 19.5847C27.1829 20.4519 27.984 21.4113 28.6754 22.4468L33.4548 30.0512C33.6312 30.3412 33.7299 30.6709 33.7415 31.0092Z" fill="#231F20"/>
<path d="M78.5601 31.021C78.5601 31.5769 78.2375 31.8489 77.5803 31.8489H72.9444C72.3675 31.8216 71.8094 31.6374 71.3314 31.3167C70.7876 31.0093 70.3282 30.5749 69.9932 30.0513L66.7194 24.9658C65.3692 22.8844 63.7323 21.8318 61.8086 21.8318H57.101V30.1104C57.1072 30.3459 57.0637 30.5802 56.9732 30.7981C56.8826 31.016 56.7471 31.2128 56.5753 31.3758C56.4107 31.5469 56.2122 31.6825 55.9922 31.7741C55.7722 31.8657 55.5354 31.9113 55.2968 31.908H51.7123C51.4719 31.9115 51.2333 31.866 51.0113 31.7745C50.7893 31.6829 50.5887 31.5472 50.4219 31.3758C50.2485 31.2134 50.1111 31.017 50.0185 30.7991C49.926 30.5812 49.8802 30.3467 49.8842 30.1104V6.26807C49.879 6.03196 49.9218 5.79722 50.0101 5.5778C50.0983 5.35838 50.2302 5.15876 50.398 4.99081C50.5621 4.81915 50.7605 4.68318 50.9806 4.59155C51.2007 4.49993 51.4377 4.45466 51.6765 4.45861H67.5438C70.1701 4.3575 72.7452 5.19732 74.7964 6.82392C75.7291 7.59323 76.4721 8.56301 76.9691 9.65944C77.466 10.7559 77.7037 11.9501 77.664 13.1511C77.664 16.8568 75.2385 19.1787 70.3875 20.117C71.2078 20.4261 71.9442 20.9201 72.5382 21.5598C73.3716 22.4866 74.1268 23.4794 74.7964 24.5283L78.2972 30.0513C78.472 30.345 78.5629 30.6802 78.5601 31.021ZM57.0532 16.4271H65.2736C66.4874 16.4529 67.6891 16.1849 68.7745 15.6465C69.248 15.4253 69.6448 15.0703 69.9148 14.6262C70.1848 14.1821 70.316 13.6689 70.2919 13.1511C70.3226 12.6366 70.1997 12.1244 69.9383 11.6786C69.677 11.2327 69.2888 10.8729 68.8222 10.6439C67.7369 10.1055 66.5351 9.83753 65.3214 9.86334H57.101L57.0532 16.4271Z" fill="#231F20"/>
<path d="M149.473 24.6821C149.445 24.3804 149.49 24.0763 149.607 23.7961C149.724 23.5159 149.907 23.268 150.142 23.0737C150.515 22.7731 150.976 22.5989 151.457 22.5769H153.751C154.333 22.5864 154.899 22.7714 155.373 23.1074C155.847 23.4433 156.206 23.9142 156.403 24.4574C157.001 25.6991 158.363 26.326 160.466 26.326L167.228 26.456C169.486 26.456 170.622 25.7228 170.622 24.2681C170.622 23.1564 169.236 22.2813 166.476 21.6426C165.281 21.347 163.871 21.0631 162.377 20.7793C160.884 20.4955 159.402 20.1288 157.932 19.7031C156.539 19.298 155.181 18.7839 153.87 18.1656C152.688 17.6356 151.657 16.8227 150.871 15.8003C150.081 14.7574 149.661 13.4851 149.676 12.1814C149.617 11.048 149.837 9.91734 150.318 8.88706C150.799 7.85679 151.526 6.95792 152.436 6.26813C154.276 4.88837 157.439 4.19849 161.923 4.19849L166.834 4.31675C169.372 4.27248 171.866 4.97198 174.003 6.32726C174.935 6.81493 175.719 7.53785 176.278 8.42268C176.836 9.30751 177.147 10.3227 177.181 11.3654C177.209 11.6699 177.162 11.9766 177.043 12.259C176.925 12.5413 176.738 12.7907 176.5 12.9856C176.137 13.2874 175.683 13.4621 175.21 13.4823H172.916C172.334 13.4738 171.769 13.289 171.297 12.9527C170.825 12.6165 170.468 12.145 170.275 11.6019C169.666 10.3483 168.316 9.72148 166.201 9.72148L160.394 9.60322C158.124 9.60322 157.001 10.3365 157.001 11.803C157.001 12.6072 157.717 13.2576 159.151 13.7662C160.851 14.3449 162.592 14.7956 164.361 15.1144C166.392 15.5047 168.447 15.9659 170.502 16.5217C172.439 17.0027 174.236 17.9262 175.747 19.2182C176.441 19.797 176.994 20.5226 177.366 21.3414C177.739 22.1602 177.92 23.0512 177.898 23.9488C177.958 25.0835 177.737 26.2155 177.254 27.2462C176.771 28.2769 176.04 29.175 175.126 29.8621C173.274 31.2458 170.12 31.9436 165.639 31.9436L159.796 31.8253C157.26 31.8591 154.769 31.1605 152.627 29.8148C151.686 29.3162 150.897 28.5771 150.343 27.6745C149.788 26.7718 149.488 25.7385 149.473 24.6821Z" fill="#231F20"/>
<path d="M101.094 17.0776H95.5504C95.0555 17.0776 94.6543 17.4748 94.6543 17.9646V30.962C94.6543 31.4519 95.0555 31.849 95.5504 31.849H101.094C101.589 31.849 101.991 31.4519 101.991 30.962V17.9646C101.991 17.4748 101.589 17.0776 101.094 17.0776Z" fill="#231F20"/>
<path d="M116.747 10.2537H111.203C110.708 10.2537 110.307 10.6508 110.307 11.1407V30.9619C110.307 31.4518 110.708 31.8489 111.203 31.8489H116.747C117.242 31.8489 117.643 31.4518 117.643 30.9619V11.1407C117.643 10.6508 117.242 10.2537 116.747 10.2537Z" fill="#231F20"/>
<path d="M132.399 4.30493H126.855C126.36 4.30493 125.959 4.70205 125.959 5.19192V30.962C125.959 31.4518 126.36 31.849 126.855 31.849H132.399C132.894 31.849 133.295 31.4518 133.295 30.962V5.19192C133.295 4.70205 132.894 4.30493 132.399 4.30493Z" fill="#231F20"/>
</svg>
