<svg width="216" height="43" viewBox="0 0 216 43" fill="none" xmlns="http://www.w3.org/2000/svg">
<path d="M39.827 37.0388C39.827 37.7028 39.4321 38.0418 38.6424 38.0418H33.4243C32.7427 38.0129 32.083 37.7926 31.5204 37.4061C30.8775 37.0354 30.3313 36.5175 29.9268 35.8946L25.9215 29.5237C25.1529 28.2033 24.1712 27.0196 23.0163 26.0204C22.0228 25.2328 20.7855 24.8181 19.5188 24.848H14.611V35.937C14.6191 36.2163 14.5679 36.4942 14.461 36.7523C14.354 37.0104 14.1937 37.2429 13.9905 37.4344C13.5875 37.8288 13.0449 38.0473 12.4815 38.0418H8.25062C7.96591 38.0433 7.68392 37.9864 7.42199 37.8746C7.16005 37.7629 6.92371 37.5986 6.7275 37.392C6.52401 37.1911 6.36295 36.9513 6.25392 36.6867C6.14489 36.4222 6.09012 36.1384 6.09287 35.8522V7.48694C6.09139 7.19885 6.14669 6.9133 6.25559 6.64665C6.3645 6.38001 6.52486 6.13751 6.7275 5.93306C6.92158 5.72368 7.15752 5.5576 7.41995 5.44564C7.68238 5.33368 7.96541 5.27835 8.25062 5.28326H12.4815C12.7646 5.27857 13.0454 5.33406 13.3056 5.44606C13.5657 5.55807 13.7991 5.72406 13.9905 5.93306C14.1912 6.13821 14.3494 6.38114 14.4559 6.64784C14.5624 6.91454 14.6151 7.19972 14.611 7.48694V18.3641H19.5188C20.7776 18.3876 22.01 18.0009 23.0305 17.2622C24.2365 16.307 25.2226 15.1024 25.9215 13.7307L29.4473 7.43043C29.7374 6.80173 30.1979 6.26719 30.7763 5.88761C31.3547 5.50803 32.0278 5.29864 32.7191 5.28326H37.9795C38.7129 5.28326 39.0796 5.59403 39.0796 6.22971C39.053 6.67294 38.9226 7.10366 38.6988 7.48694L33.7487 16.457C33.1169 17.6503 32.3086 18.7409 31.3512 19.6919C30.3699 20.5923 29.168 21.2162 27.8677 21.5001C29.0811 21.8123 30.1783 22.4697 31.0268 23.393C32.0857 24.4287 33.0313 25.5747 33.8474 26.8115L39.4885 35.8946C39.6968 36.2409 39.8133 36.6348 39.827 37.0388Z" fill="#231F20"/>
<path d="M92.7264 37.053C92.7264 37.7169 92.3456 38.0418 91.5699 38.0418H86.098C85.4171 38.0092 84.7584 37.7893 84.1941 37.4062C83.5523 37.039 83.01 36.5201 82.6146 35.8947L78.7504 29.8204C77.1568 27.3342 75.2247 26.077 72.9541 26.077H67.3976V35.9653C67.405 36.2466 67.3536 36.5264 67.2467 36.7867C67.1399 37.047 66.9799 37.2821 66.777 37.4768C66.5828 37.6811 66.3485 37.8431 66.0888 37.9525C65.8291 38.0619 65.5497 38.1163 65.268 38.1125H61.0371C60.7533 38.1166 60.4717 38.0623 60.2097 37.953C59.9477 37.8436 59.711 37.6815 59.514 37.4768C59.3093 37.2828 59.1472 37.0482 59.0379 36.7879C58.9287 36.5277 58.8747 36.2476 58.8794 35.9653V7.48698C58.8733 7.20496 58.9238 6.92457 59.028 6.66249C59.1321 6.40041 59.2878 6.16197 59.4858 5.96136C59.6796 5.75632 59.9138 5.59391 60.1736 5.48447C60.4334 5.37503 60.713 5.32095 60.9948 5.32568H79.7235C82.8234 5.20491 85.8628 6.20802 88.2839 8.15091C89.3848 9.06981 90.2619 10.2282 90.8484 11.5378C91.4349 12.8474 91.7155 14.2738 91.6686 15.7084C91.6686 20.1346 88.8058 22.908 83.08 24.0287C84.0483 24.3979 84.9174 24.988 85.6185 25.7521C86.6022 26.8591 87.4937 28.0449 88.2839 29.2978L92.4161 35.8947C92.6224 36.2455 92.7297 36.6459 92.7264 37.053ZM67.3411 19.6213H77.0439C78.4766 19.6522 79.895 19.3321 81.1761 18.689C81.735 18.4248 82.2033 18.0007 82.5221 17.4703C82.8408 16.9399 82.9957 16.3268 82.9672 15.7084C83.0034 15.0938 82.8583 14.4821 82.5498 13.9495C82.2414 13.417 81.7832 12.9871 81.2325 12.7137C79.9514 12.0705 78.533 11.7505 77.1003 11.7813H67.3976L67.3411 19.6213Z" fill="#231F20"/>
<path d="M176.428 29.4814C176.394 29.121 176.448 28.7578 176.586 28.4231C176.723 28.0885 176.94 27.7923 177.217 27.5602C177.658 27.2012 178.202 26.9932 178.769 26.9669H181.477C182.164 26.9782 182.833 27.1992 183.392 27.6005C183.951 28.0018 184.375 28.5642 184.607 29.213C185.313 30.6962 186.92 31.4449 189.402 31.4449L197.385 31.6003C200.05 31.6003 201.39 30.7245 201.39 28.987C201.39 27.6591 199.754 26.6138 196.496 25.851C195.086 25.4978 193.422 25.1588 191.659 24.8198C189.896 24.4807 188.147 24.0428 186.413 23.5343C184.768 23.0504 183.165 22.4364 181.618 21.6979C180.222 21.0647 179.006 20.0938 178.078 18.8726C177.145 17.6269 176.649 16.1072 176.667 14.55C176.597 13.1963 176.857 11.8457 177.425 10.6151C177.992 9.38453 178.851 8.31088 179.925 7.48697C182.097 5.83892 185.83 5.01489 191.123 5.01489L196.919 5.15615C199.915 5.10327 202.859 5.93878 205.381 7.5576C206.481 8.14009 207.407 9.00358 208.066 10.0605C208.725 11.1173 209.093 12.33 209.132 13.5753C209.166 13.9391 209.11 14.3054 208.97 14.6427C208.83 14.9799 208.609 15.2778 208.328 15.5106C207.9 15.8711 207.364 16.0797 206.805 16.1039H204.098C203.411 16.0938 202.744 15.873 202.187 15.4714C201.63 15.0697 201.209 14.5066 200.981 13.8579C200.262 12.3605 198.668 11.6118 196.172 11.6118L189.318 11.4705C186.638 11.4705 185.313 12.3464 185.313 14.098C185.313 15.0586 186.159 15.8355 187.851 16.4429C189.857 17.1342 191.913 17.6725 194 18.0533C196.397 18.5195 198.823 19.0704 201.249 19.7343C203.535 20.3088 205.656 21.4119 207.44 22.9551C208.258 23.6465 208.911 24.5131 209.351 25.4911C209.79 26.4691 210.005 27.5334 209.979 28.6056C210.05 29.9609 209.789 31.313 209.218 32.5441C208.648 33.7752 207.786 34.8479 206.707 35.6686C204.521 37.3214 200.798 38.1548 195.509 38.1548L188.613 38.0136C185.619 38.054 182.678 37.2195 180.151 35.6121C179.04 35.0166 178.109 34.1338 177.454 33.0556C176.799 31.9775 176.445 30.7433 176.428 29.4814Z" fill="#231F20"/>
<path d="M119.325 20.3982H112.781C112.197 20.3982 111.724 20.8725 111.724 21.4577V36.9823C111.724 37.5674 112.197 38.0418 112.781 38.0418H119.325C119.909 38.0418 120.383 37.5674 120.383 36.9823V21.4577C120.383 20.8725 119.909 20.3982 119.325 20.3982Z" fill="#231F20"/>
<path d="M137.8 12.2473H131.256C130.672 12.2473 130.198 12.7217 130.198 13.3068V36.9822C130.198 37.5673 130.672 38.0417 131.256 38.0417H137.8C138.384 38.0417 138.857 37.5673 138.857 36.9822V13.3068C138.857 12.7217 138.384 12.2473 137.8 12.2473Z" fill="#231F20"/>
<path d="M156.274 5.14185H149.731C149.146 5.14185 148.673 5.61618 148.673 6.20131V36.9822C148.673 37.5673 149.146 38.0416 149.731 38.0416H156.274C156.858 38.0416 157.332 37.5673 157.332 36.9822V6.20131C157.332 5.61618 156.858 5.14185 156.274 5.14185Z" fill="#231F20"/>
</svg>
